# xmcd
#
# Track frame offsets:
#	150
#	18219
#	41210
#	65531
#	91777
#	120716
#	135363
#	197479
#	217109
#	244834
#
# Disc length: 3605 seconds
#
# Revision: 1
# Processed by: cddbd v1.5.2PL0 Copyright (c) Steve Scherf et al.
# Submitted via: audiograbber 1.83.01
#
DISCID=870e130a
DTITLE=Schluff Jull - Colors for your ears
DYEAR=2006
DGENRE=Blues
TTITLE0=Eavesdropping
TTITLE1=Stargazer
TTITLE2=Not a game
TTITLE3=Miles and miles
TTITLE4=Way beyond the moon
TTITLE5=Today´s a rainy day
TTITLE6=On the edge
TTITLE7=Left bank Blues
TTITLE8=Hollow
TTITLE9=61 Roadsong
EXTD=
EXTT0=
EXTT1=
EXTT2=
EXTT3=
EXTT4=
EXTT5=
EXTT6=
EXTT7=
EXTT8=
EXTT9=
PLAYORDER=
